<?xml version="1.0" encoding="UTF-8" standalone="no"?>
<!-- Created with Inkscape (http://www.inkscape.org/) -->

<svg
   width="192"
   height="192"
   viewBox="0 0 192 192"
   version="1.1"
   id="SVGRoot"
   xml:space="preserve"
   xmlns="http://www.w3.org/2000/svg"
   xmlns:svg="http://www.w3.org/2000/svg"
   xmlns:rdf="http://www.w3.org/1999/02/22-rdf-syntax-ns#"
   xmlns:cc="http://creativecommons.org/ns#"
   xmlns:dc="http://purl.org/dc/elements/1.1/"><path
     id="path18"
     style="display:inline;opacity:1;fill:none;stroke:#000000;stroke-width:12;stroke-linecap:round;stroke-linejoin:round;stroke-dasharray:none;stroke-opacity:1"
     d="m 127.8735,93.003588 c 7.91837,-5.389358 6.28783,-17.62572 -1.14642,-21.167028 V 55 M 117,145 H 78.454793 L 74.319972,95.127769 C 60.920592,92.189316 61.637212,76.000953 70.379497,71.83656 V 55 H 126.72708 M 42,106.8122 H 29.168143 c -3.971175,0 -7.168193,-3.02583 -7.168193,-6.78435 V 51.889287 c 0,-3.758522 3.197018,-6.784343 7.168193,-6.784343 H 42 M 75.5,124.00005 H 49.26589 c -4.025327,0 -7.26594,-3.06708 -7.26594,-6.87686 V 28.876807 c 0,-3.809774 3.240613,-6.876857 7.26594,-6.876857 v 0 h 40.544523 c 4.025327,0 7.265942,3.067083 7.265942,6.876857 V 54.999941 M 113.24156,170 H 162.7579 M 120.98185,93 c -9.61445,15.29915 -17.40501,26.45423 -14.30144,36.98508 C 111.03262,144.75278 126.91998,153 138,153 M 120.98185,93 h 34.03629 c 9.61445,15.29915 17.40501,26.45423 14.30144,36.98508 C 164.96735,144.75278 149.57519,153 138,153 v 16.99999" /><metadata
     id="metadata8"><rdf:RDF><cc:Work
         rdf:about=""><dc:format>image/svg+xml</dc:format><dc:type
           rdf:resource="http://purl.org/dc/dcmitype/StillImage" /></cc:Work></rdf:RDF></metadata><defs
     id="defs18865" /></svg>
