<?xml version="1.0" encoding="UTF-8" standalone="no"?>
<svg
   width="192"
   height="192"
   fill="none"
   stroke="#000"
   stroke-width="12"
   viewBox="0 0 192 192"
   version="1.1"
   id="svg2"
   xmlns="http://www.w3.org/2000/svg"
   xmlns:svg="http://www.w3.org/2000/svg">
  <defs
     id="defs2" />
  <path
     id="circle4"
     d="m 73,158 a 12,12 0 0 1 -12,12 12,12 0 0 1 -12,-12 12,12 0 0 1 12,-12 12,12 0 0 1 12,12 z m 57.00005,0 c 0,6.64803 -6.244,12.00005 -14,12.00005 H 35.999946 c -7.756,0 -13.999999,-5.35202 -13.999999,-12.00005 0,-6.64802 6.243999,-12.00005 13.999999,-12.00005 h 80.000104 c 7.756,0 14,5.35203 14,12.00005 z M 158,49 a 12,12 0 0 1 12,12 12,12 0 0 1 -12,12 12,12 0 0 1 -12,-12 12,12 0 0 1 12,-12 z m 0,-27.000002 c 6.64803,0 12.00005,6.244 12.00005,13.999999 V 116.0001 c 0,7.756 -5.35202,14 -12.00005,14 -6.64802,0 -12.00005,-6.244 -12.00005,-14 V 35.999997 c 0,-7.755999 5.35203,-13.999999 12.00005,-13.999999 z M 61,48.99995 A 12.00005,12.00005 0 0 1 73.00005,61 12.00005,12.00005 0 0 1 61,73.00005 12.00005,12.00005 0 0 1 48.99995,61 12.00005,12.00005 0 0 1 61,48.99995 Z m 10,-27 A 49.00005,49.00005 0 0 1 120.00005,71 49.00005,49.00005 0 0 1 71,120.00005 49.00005,49.00005 0 0 1 21.99995,71 49.00005,49.00005 0 0 1 71,21.99995 Z"
     style="fill:none;stroke:#000000;stroke-opacity:1" />
</svg>
