<?xml version="1.0" encoding="UTF-8" standalone="no"?>
<!-- Created with Inkscape (http://www.inkscape.org/) -->

<svg
   width="192"
   height="192"
   viewBox="0 0 192 192"
   version="1.1"
   id="SVGRoot"
   xml:space="preserve"
   xmlns="http://www.w3.org/2000/svg"
   xmlns:svg="http://www.w3.org/2000/svg"
   xmlns:rdf="http://www.w3.org/1999/02/22-rdf-syntax-ns#"
   xmlns:cc="http://creativecommons.org/ns#"
   xmlns:dc="http://purl.org/dc/elements/1.1/"><path
     id="path9"
     style="fill:none;stroke:#000000;stroke-width:10;stroke-linecap:round;stroke-linejoin:round;stroke-dasharray:none;stroke-opacity:1"
     d="M 138,68 H 121.5 M 171,68 H 153 V 78 H 138 V 68 m -10,86 h 43 V 68 M 96,171 h 33 L 120,50 m 16,0 H 56 V 21 H 72 V 31 H 88 V 21 h 16 v 10 h 16 V 21 h 16 z M 54,68 H 70.5 M 20.999995,68 H 39 V 78 H 54 V 68 m 10,86 H 21 V 68 M 96,171 H 63 L 72,50 m 24.000002,82 C 102.64801,132 108,139.13928 108,148.00737 v 21.99262 H 84 V 148.00737 C 84,139.13928 89.352001,132 96.000002,132 Z" /><metadata
     id="metadata8"><rdf:RDF><cc:Work
         rdf:about=""><dc:format>image/svg+xml</dc:format><dc:type
           rdf:resource="http://purl.org/dc/dcmitype/StillImage" /></cc:Work></rdf:RDF></metadata><defs
     id="defs18865" /></svg>
