<?xml version="1.0" encoding="UTF-8" standalone="no"?>
<!-- Created with Inkscape (http://www.inkscape.org/) -->

<svg
   width="192"
   height="192"
   viewBox="0 0 192 192"
   version="1.1"
   id="SVGRoot"
   xml:space="preserve"
   xmlns="http://www.w3.org/2000/svg"
   xmlns:svg="http://www.w3.org/2000/svg"
   xmlns:rdf="http://www.w3.org/1999/02/22-rdf-syntax-ns#"
   xmlns:cc="http://creativecommons.org/ns#"
   xmlns:dc="http://purl.org/dc/elements/1.1/"><metadata
     id="metadata8"><rdf:RDF><cc:Work
         rdf:about=""><dc:format>image/svg+xml</dc:format><dc:type
           rdf:resource="http://purl.org/dc/dcmitype/StillImage" /></cc:Work></rdf:RDF></metadata><defs
     id="defs18865" /><path
     style="display:inline;opacity:1;fill:none;stroke:#000000;stroke-width:10;stroke-linecap:round;stroke-linejoin:round;stroke-dasharray:none;stroke-opacity:1"
     d="M 63.950618,99.506173 109.87654,74.814815 C 104.44415,63.754064 87.857164,56.191869 70.37037,66.666666 52.883577,77.141463 60.874695,89.169231 63.950618,99.506173 Z"
     id="path2" /><path
     id="path4"
     style="display:inline;opacity:1;fill:none;stroke:#000000;stroke-width:10;stroke-linecap:round;stroke-linejoin:round;stroke-dasharray:none;stroke-opacity:1"
     d="M 125.15201,36.897138 C 118.05329,34.583636 109.76637,33.488716 99.903369,34.226874 71.344697,36.364232 36.162135,50.368982 24.682439,75.612491 M 171,103.77985 c -1.1978,-5.790333 -4.23886,-11.706982 -10.44847,-13.233442 l -26.0986,16.945692 c 3.47384,7.83699 0.11021,12.89344 -10.688,18.44092 -28.014186,14.39207 -46.231799,-0.70379 -50.208719,-10.21726 v 0 L 161.29721,66.373864 c -4.99707,-6.36656 -10.46969,-13.242621 -17.43742,-19.013439 m 0,0 c -0.94652,4.698624 -5.32591,8.507432 -10.28555,9.062712 -4.95963,0.555281 -9.72326,-2.031958 -11.77443,-6.394962 -2.05116,-4.363005 -0.36767,-9.938678 3.3522,-13.131037 m 36.41818,82.547372 c -3.32328,-3.06225 -4.02162,-8.38865 -1.62072,-12.36141 2.40091,-3.97274 7.20325,-5.49841 11.05053,-3.30325 m -82.840978,53.30559 c 30.349118,-4.665 58.914148,-24.159 73.411168,-37.64093 M 21,105.30446 c 2.524867,20.3798 14.125427,40.02496 30.90211,48.36659 m 0,0 c 2.507498,-5.58486 9.602067,-10.61787 15.723487,-7.80731 6.009267,2.75907 19.895275,1.43102 20.533425,11.2217 M 24.682439,75.612491 c 6.236815,3.814969 0.529185,10.253328 5.369844,13.98534 C 42.059071,98.854728 34.361325,104.50594 21,105.30446" /></svg>
