<?xml version="1.0" encoding="UTF-8" standalone="no"?>
<!-- Created with Inkscape (http://www.inkscape.org/) -->

<svg
   width="192"
   height="192"
   viewBox="0 0 192 192"
   version="1.1"
   id="SVGRoot"
   xml:space="preserve"
   xmlns="http://www.w3.org/2000/svg"
   xmlns:svg="http://www.w3.org/2000/svg"
   xmlns:rdf="http://www.w3.org/1999/02/22-rdf-syntax-ns#"
   xmlns:cc="http://creativecommons.org/ns#"
   xmlns:dc="http://purl.org/dc/elements/1.1/"><path
     id="path2"
     style="fill:none;stroke:#000000;stroke-width:8;stroke-linecap:round;stroke-linejoin:round;stroke-dasharray:none;stroke-opacity:1"
     d="M 63,69 50,83 63,97 M 50,69 v 28 m 65.99999,-1 -11,-27 m 11,27 11,-27 M 105,69 103,97 m 24,-28 2,28 M 83,69 74,97 m 9,-28 9,28 m 50,-28 v 28 m -40.18213,33.71158 a 8.2383849,8.7185008 0 0 0 0.54327,-11.69981 8.2396528,8.7198424 0 0 0 -13.638092,1.42221 8.2409205,8.7211842 0 0 0 -0.973063,4.11106 m 14.066625,6.16519 c -2.155325,2.07966 -14.066625,13.28975 -14.066625,13.28975 m 0,0 h 16.481865" /><metadata
     id="metadata8"><rdf:RDF><cc:Work
         rdf:about=""><dc:format>image/svg+xml</dc:format><dc:type
           rdf:resource="http://purl.org/dc/dcmitype/StillImage" /></cc:Work></rdf:RDF></metadata><defs
     id="defs18865" /><path
     d="m 29.999959,61.49175 a 6.3807142,5.9924625 0 0 1 3.179713,-5.182671 L 92.792619,23.829413 a 6.3913595,6.0024599 0 0 1 6.414778,0 l 59.612953,32.479666 a 6.3807142,5.9924625 0 0 1 3.17971,5.182671 v 69.0153 a 6.3817789,5.9934623 0 0 1 -3.17971,5.18365 l -59.612953,32.47968 a 6.3902949,6.0014603 0 0 1 -6.414778,0 L 33.179672,135.6907 a 6.3817789,5.9934623 0 0 1 -3.179713,-5.18365 V 61.492748 Z"
     stroke="#000000"
     stroke-width="13.9999"
     stroke-linecap="round"
     stroke-linejoin="round"
     id="path5"
     style="fill:none" /></svg>
