<?xml version="1.0" encoding="UTF-8" standalone="no"?>
<!-- Created with Inkscape (http://www.inkscape.org/) -->

<svg
   width="192"
   height="192"
   viewBox="0 0 192 192"
   version="1.1"
   id="SVGRoot"
   xml:space="preserve"
   xmlns="http://www.w3.org/2000/svg"
   xmlns:svg="http://www.w3.org/2000/svg"
   xmlns:rdf="http://www.w3.org/1999/02/22-rdf-syntax-ns#"
   xmlns:cc="http://creativecommons.org/ns#"
   xmlns:dc="http://purl.org/dc/elements/1.1/"><metadata
     id="metadata8"><rdf:RDF><cc:Work
         rdf:about=""><dc:format>image/svg+xml</dc:format><dc:type
           rdf:resource="http://purl.org/dc/dcmitype/StillImage" /></cc:Work></rdf:RDF></metadata><defs
     id="defs18865" /><path
     style="opacity:1;fill:none;stroke:#000000;stroke-width:12;stroke-linecap:round;stroke-linejoin:round;stroke-miterlimit:4;stroke-dasharray:none;stroke-opacity:1"
     d="m 129.12563,127.7087 c -10.18091,-24.29563 -18.87928,-34.738853 -17.24194,-44.511245 0.76315,-4.554874 4.34643,-7.550738 7.39687,-7.138964 4.93089,0.66561 8.7484,8.386748 6.61987,13.428656 -4.17507,9.889565 -23.58757,12.698753 -19.34713,27.557933 3.27212,11.46602 14.44681,10.44645 18.02575,2.90628"
     id="path1" /><path
     style="opacity:1;fill:none;stroke:#000000;stroke-width:12;stroke-linecap:round;stroke-linejoin:round;stroke-miterlimit:4;stroke-dasharray:none;stroke-opacity:1"
     d="m 170,40 c -7.84941,3.296966 -16.5096,4.509599 -24,5 v 81"
     id="path2" /><path
     style="opacity:1;fill:none;stroke:#000000;stroke-width:12;stroke-linecap:round;stroke-linejoin:miter;stroke-miterlimit:4;stroke-dasharray:none;stroke-opacity:1"
     d="M 163.59351,67 146,68.282763"
     id="path3" /><path
     style="opacity:1;fill:none;stroke:#000000;stroke-width:12;stroke-linecap:round;stroke-linejoin:miter;stroke-miterlimit:4;stroke-dasharray:none;stroke-opacity:1"
     d="m 66,40 v 76"
     id="path4" /><path
     style="opacity:1;fill:none;stroke:#000000;stroke-width:12;stroke-linecap:round;stroke-linejoin:miter;stroke-miterlimit:4;stroke-dasharray:none;stroke-opacity:1"
     d="M 89,120 V 46"
     id="path5" /><path
     style="opacity:1;fill:none;stroke:#000000;stroke-width:12;stroke-linecap:round;stroke-linejoin:miter;stroke-miterlimit:4;stroke-dasharray:none;stroke-opacity:1"
     d="M 66,62 H 89"
     id="path6" /><path
     style="opacity:1;fill:none;stroke:#000000;stroke-width:12;stroke-linecap:round;stroke-linejoin:round;stroke-miterlimit:4;stroke-dasharray:none;stroke-opacity:1"
     d="M 22,114 V 31.275297 C 34.893755,28.73861 51.686748,32.924558 51.201427,47.274805 50.771216,59.995513 40.141563,63.908468 32.255702,69.898803 42.765259,73.256718 48.024801,95.991747 49.381247,113"
     id="path7" /><path
     style="opacity:1;fill:none;stroke:#000000;stroke-width:10;stroke-linecap:round;stroke-linejoin:round;stroke-miterlimit:4;stroke-dasharray:none;stroke-opacity:1"
     d="m 22.989662,134.34286 c 28.406551,-5.51883 74.099891,22.23802 78.802748,36.65674 18.04234,-17.03104 58.20073,-26.1349 65.22181,-28.7851 -54.58734,16.95029 -103.949632,-19.36976 -144.024558,-7.87164 z"
     id="path9" /></svg>
